<svg width="25" height="25" viewBox="0 0 25 25" fill="none" xmlns="http://www.w3.org/2000/svg">
<path d="M21.3011 21.3015H17.5969V15.5005C17.5969 14.1172 17.5721 12.3364 15.6703 12.3364C13.741 12.3364 13.4458 13.8436 13.4458 15.3998V21.3011H9.74167V9.37184H13.2976V11.0021H13.3474C13.7033 10.3936 14.2176 9.89304 14.8354 9.55369C15.4533 9.21434 16.1516 9.04892 16.856 9.07506C20.6104 9.07506 21.3026 11.5446 21.3026 14.7573L21.3011 21.3015ZM5.56199 7.74127C4.37478 7.74147 3.41218 6.77916 3.41199 5.59196C3.41179 4.40475 4.374 3.44215 5.56121 3.44196C6.74841 3.44166 7.71101 4.40397 7.71121 5.59118C7.71131 6.1613 7.48494 6.70811 7.08188 7.11133C6.67883 7.51455 6.13211 7.74114 5.56199 7.74127ZM7.41414 21.3016H3.70603V9.37184H7.41404V21.3015L7.41414 21.3016ZM23.1477 0.00181952H1.8447C0.837866 -0.0095086 0.0121826 0.797034 -0.00012207 1.80387V23.1958C0.011792 24.2031 0.837378 25.0104 1.8446 24.9999H23.1477C24.1571 25.0124 24.9859 24.205 24.9999 23.1958V1.80221C24.9855 0.793421 24.1566 -0.0130242 23.1477 0.000159364" fill="#0A66C2"/>
</svg>
