<svg width="32" height="32" viewBox="0 0 32 32" fill="none" xmlns="http://www.w3.org/2000/svg">
<path d="M27.379 4.65396C24.4144 1.63756 20.3163 0 16.1309 0C7.23722 0 0.0872496 7.1533 0.174374 15.8579C0.174374 18.6158 0.959121 21.2877 2.26712 23.7008L0 31.8883L8.45784 29.7337C10.8121 31.0265 13.4278 31.6298 16.0438 31.6298C24.8504 31.6298 32.0004 24.4764 32.0004 15.7719C32.0004 11.5488 30.3436 7.58425 27.3791 4.65396H27.379ZM16.1309 28.9581C13.7767 28.9581 11.4225 28.355 9.41696 27.1484L8.89384 26.8898L3.83661 28.1825L5.14448 23.2701L4.79573 22.7529C0.959121 16.6338 2.79024 8.53226 9.06821 4.74008C15.3462 0.948016 23.4553 2.75793 27.2919 8.96321C31.1284 15.1685 29.2973 23.1837 23.0194 26.9759C21.0138 28.2686 18.5724 28.958 16.1309 28.958V28.9581ZM23.804 19.3918L22.8449 18.9608C22.8449 18.9608 21.4499 18.3575 20.5779 17.9265C20.4907 17.9265 20.4035 17.8403 20.3163 17.8403C20.0547 17.8403 19.8803 17.9265 19.7059 18.0128C19.7059 18.0128 19.6188 18.0989 18.398 19.4779C18.3108 19.6502 18.1364 19.7365 17.9621 19.7365H17.8748C17.7877 19.7365 17.6133 19.6502 17.5261 19.5641L17.0901 19.3918C16.1309 18.9608 15.2591 18.4436 14.5614 17.7542C14.3871 17.5818 14.1254 17.4095 13.9511 17.2371C13.3407 16.6338 12.7303 15.9443 12.2944 15.1686L12.2072 14.9963C12.1201 14.91 12.1201 14.8239 12.0328 14.6516C12.0328 14.4792 12.0328 14.3068 12.1201 14.2206C12.1201 14.2206 12.4688 13.7897 12.7303 13.5312C12.9048 13.3587 12.9919 13.1002 13.1663 12.9279C13.3407 12.6693 13.4279 12.3246 13.3407 12.066C13.2536 11.635 12.2072 9.30805 11.9457 8.79098C11.7712 8.53239 11.597 8.44627 11.3353 8.36003H10.3762C10.2017 8.36003 10.0275 8.44627 9.85296 8.44627L9.76571 8.53239C9.59134 8.61862 9.41696 8.79098 9.24259 8.8771C9.06821 9.04957 8.98096 9.22181 8.80659 9.39429C8.19622 10.1699 7.84747 11.118 7.84747 12.066C7.84747 12.7554 8.02184 13.4449 8.28347 14.0482L8.37072 14.3068C9.15546 15.9443 10.2017 17.4095 11.597 18.7022L11.9457 19.0469C12.2072 19.3055 12.4688 19.4779 12.6432 19.7363C14.4743 21.2878 16.5669 22.4082 18.9212 23.0115C19.1828 23.0976 19.5315 23.0976 19.7932 23.1838H20.665C21.101 23.1838 21.6242 23.0115 21.973 22.8391C22.2345 22.6667 22.4089 22.6667 22.5833 22.4944L22.7578 22.3219C22.9322 22.1496 23.1065 22.0634 23.2809 21.8911C23.4553 21.7187 23.6297 21.5464 23.7169 21.3739C23.8913 21.0292 23.9784 20.5982 24.0656 20.1674V19.5641C24.0656 19.5641 23.9784 19.4779 23.804 19.3918Z" fill="white"/>
</svg>
