<svg width="38" height="39" viewBox="0 0 38 39" fill="none" xmlns="http://www.w3.org/2000/svg">
<path d="M10.4643 3.18725C12.838 1.14032 15.8656 0.00982897 19 0C25.3888 0 30.6921 4.75 31.2693 10.8751C35.0503 11.4095 38 14.5754 38 18.4609C38 22.7264 34.4423 26.125 30.1316 26.125H23.75C23.4351 26.125 23.133 25.9999 22.9103 25.7772C22.6876 25.5545 22.5625 25.2524 22.5625 24.9375C22.5625 24.6226 22.6876 24.3205 22.9103 24.0978C23.133 23.8751 23.4351 23.75 23.75 23.75H30.134C33.2001 23.75 35.625 21.3465 35.625 18.4609C35.625 15.5729 33.2025 13.1694 30.1316 13.1694H28.9441V11.9819C28.9465 6.70938 24.529 2.375 19 2.375C16.4347 2.38525 13.9575 3.31178 12.0151 4.9875C10.2172 6.536 9.27675 8.40275 9.27675 9.86813V10.9321L8.21987 11.0485C4.902 11.4119 2.375 14.136 2.375 17.3802C2.375 20.8644 5.29625 23.75 8.97987 23.75H14.25C14.5649 23.75 14.867 23.8751 15.0897 24.0978C15.3124 24.3205 15.4375 24.6226 15.4375 24.9375C15.4375 25.2524 15.3124 25.5545 15.0897 25.7772C14.867 25.9999 14.5649 26.125 14.25 26.125H8.97987C4.0565 26.125 0 22.2442 0 17.3802C0 13.1931 3.00675 9.72562 6.98725 8.84687C7.32687 6.79725 8.645 4.75475 10.4643 3.18725V3.18725Z" fill="white"/>
<path d="M18.1593 37.6533C18.2696 37.7638 18.4006 37.8516 18.5449 37.9114C18.6891 37.9713 18.8438 38.0021 19 38.0021C19.1562 38.0021 19.3109 37.9713 19.4551 37.9114C19.5994 37.8516 19.7304 37.7638 19.8408 37.6533L26.9658 30.5283C27.1887 30.3053 27.314 30.0028 27.314 29.6875C27.314 29.3722 27.1887 29.0697 26.9658 28.8467C26.7428 28.6238 26.4403 28.4985 26.125 28.4985C25.8097 28.4985 25.5072 28.6238 25.2843 28.8467L20.1875 33.9459V13.0625C20.1875 12.7476 20.0624 12.4455 19.8397 12.2228C19.617 12.0001 19.3149 11.875 19 11.875C18.6851 11.875 18.383 12.0001 18.1603 12.2228C17.9376 12.4455 17.8125 12.7476 17.8125 13.0625V33.9459L12.7158 28.8467C12.4928 28.6238 12.1903 28.4985 11.875 28.4985C11.5597 28.4985 11.2572 28.6238 11.0343 28.8467C10.8113 29.0697 10.686 29.3722 10.686 29.6875C10.686 30.0028 10.8113 30.3053 11.0343 30.5283L18.1593 37.6533Z" fill="white"/>
</svg>
