<svg width="38" height="38" viewBox="0 0 38 38" fill="none" xmlns="http://www.w3.org/2000/svg">
<path d="M30.1546 11.7183C30.7531 11.1198 31.0824 10.3249 31.0824 9.47942C31.0824 8.63392 30.7531 7.83909 30.1546 7.24059L27.6434 4.72942C27.0449 4.13092 26.2501 3.80159 25.4046 3.80159C24.5591 3.80159 23.7642 4.13092 23.1673 4.72784L6.33333 21.5096V28.5H13.3206L30.1546 11.7183ZM25.4046 6.96826L27.9173 9.47784L25.3998 11.9858L22.8887 9.47626L25.4046 6.96826ZM9.5 25.3333V22.8238L20.6467 11.7119L23.1578 14.2231L12.0127 25.3333H9.5ZM6.33333 31.6667H31.6667V34.8333H6.33333V31.6667Z" fill="#FCFDFF"/>
</svg>
